
Genre:Comedy | Horror
Language:English  http://www.imdb.com/title/tt1100053/
Source:BluRay DTS x264-DON


Format : MPEG-4
Format profile : Base Media
Codec ID : isom
File size : 2.26 GiB
Duration : 1h 31mn
Overall bit rate : 3 539 Kbps


Video
Format settings, CABAC : Yes
Format settings, ReFrames : 3 frames
Codec ID : avc1
Codec ID/Info : Advanced Video Coding
Duration : 1h 31mn
Bit rate mode : Variable
Bit rate : 2 999 Kbps
Maximum bit rate : 19.9 Mbps
Width : 1 280 pixels
Height : 544 pixels
Display aspect ratio : 2.35:1
Frame rate mode : Constant
Frame rate : 23.976 fps
Color space : YUV
Chroma subsampling : 4:2:0
Bit depth : 8 bits
Scan type : Progressive
Bits/(Pixel*Frame) : 0.180
Stream size : 1.93 GiB (86%)
Writing library : x264


Audio
ID : 2
Format : AAC
Format/Info : Advanced Audio Codec
Format version : Version 4
Format profile : LC
Format settings, SBR : No
Codec ID : 40
Duration : 1h 31mn
Bit rate mode : Variable
Bit rate : 509 Kbps
Maximum bit rate : 615 Kbps
Channel(s) : 6 channels
Channel positions : Front: L C R, Side: L R, LFE
Sampling rate : 48.0 KHz
Stream size : 332 MiB (14%)


Plot:
A bullied teenager comes back from the dead to take revenge on his classmates.

